<svg width="164" height="674" viewBox="0 0 164 674" fill="none" xmlns="http://www.w3.org/2000/svg">
<rect width="164" height="674" rx="8" fill="#32C1FF"/>
<path d="M58.9435 333.047C58.8725 332.331 58.5677 331.775 58.0291 331.378C57.4905 330.982 56.7596 330.783 55.8363 330.783C55.2089 330.783 54.6792 330.872 54.2472 331.05C53.8151 331.221 53.4837 331.461 53.2528 331.769C53.0279 332.077 52.9155 332.426 52.9155 332.816C52.9036 333.142 52.9717 333.426 53.1197 333.669C53.2736 333.911 53.4837 334.121 53.75 334.299C54.0163 334.471 54.3241 334.622 54.6733 334.752C55.0225 334.876 55.3954 334.983 55.7919 335.071L57.4254 335.462C58.2185 335.64 58.9465 335.876 59.6094 336.172C60.2723 336.468 60.8464 336.832 61.3317 337.264C61.817 337.696 62.1928 338.205 62.4592 338.791C62.7314 339.377 62.8705 340.049 62.8764 340.806C62.8705 341.919 62.5864 342.884 62.0241 343.701C61.4678 344.511 60.6629 345.142 59.6094 345.592C58.5618 346.036 57.2982 346.257 55.8185 346.257C54.3507 346.257 53.0723 346.033 51.9833 345.583C50.9002 345.133 50.0539 344.467 49.4442 343.585C48.8406 342.697 48.5239 341.6 48.4943 340.292H52.2141C52.2556 340.901 52.4302 341.41 52.7379 341.819C53.0516 342.221 53.4689 342.526 53.9897 342.733C54.5165 342.934 55.1113 343.035 55.7741 343.035C56.4252 343.035 56.9904 342.94 57.4698 342.751C57.9551 342.561 58.331 342.298 58.5973 341.961C58.8636 341.623 58.9968 341.236 58.9968 340.798C58.9968 340.389 58.8755 340.046 58.6328 339.768C58.3961 339.49 58.0469 339.253 57.5852 339.058C57.1295 338.862 56.5702 338.685 55.9073 338.525L53.9276 338.028C52.3946 337.655 51.1843 337.072 50.2965 336.279C49.4087 335.486 48.9678 334.417 48.9737 333.074C48.9678 331.973 49.2608 331.011 49.8526 330.189C50.4504 329.366 51.2701 328.724 52.3118 328.262C53.3535 327.8 54.5372 327.57 55.8629 327.57C57.2124 327.57 58.3902 327.8 59.3963 328.262C60.4084 328.724 61.1955 329.366 61.7578 330.189C62.3201 331.011 62.6101 331.964 62.6278 333.047H58.9435ZM65.4621 346V327.818H77.7135V330.988H69.3062V335.32H77.0832V338.489H69.3062V342.831H77.749V346H65.4621ZM95.9775 327.818V346H92.6571L84.747 334.556H84.6138V346H80.7697V327.818H84.1433L91.9913 339.253H92.1511V327.818H95.9775ZM105.599 346H99.1535V327.818H105.652C107.481 327.818 109.055 328.182 110.375 328.91C111.695 329.632 112.71 330.671 113.42 332.026C114.136 333.382 114.494 335.003 114.494 336.891C114.494 338.785 114.136 340.413 113.42 341.774C112.71 343.135 111.689 344.18 110.357 344.908C109.032 345.636 107.445 346 105.599 346ZM102.998 342.706H105.439C106.575 342.706 107.531 342.505 108.307 342.103C109.088 341.694 109.674 341.064 110.064 340.212C110.461 339.353 110.659 338.247 110.659 336.891C110.659 335.548 110.461 334.45 110.064 333.598C109.674 332.745 109.091 332.118 108.315 331.716C107.54 331.313 106.584 331.112 105.448 331.112H102.998V342.706Z" fill="white"/>
</svg>
