<svg width="158" height="48" viewBox="0 0 158 48" fill="none" xmlns="http://www.w3.org/2000/svg">
<path d="M2.32955 39V35.7188L17.2443 14.3267H2.24432V9.90909H23.7784V13.1903L8.87784 34.5824H23.8636V39H2.32955ZM34.233 9.90909V39H28.9631V9.90909H34.233ZM39.9396 39V9.90909H50.8487C53.0836 9.90909 54.9586 10.3258 56.4737 11.1591C57.9983 11.9924 59.1489 13.1383 59.9254 14.5966C60.7114 16.0455 61.1044 17.6932 61.1044 19.5398C61.1044 21.4053 60.7114 23.0625 59.9254 24.5114C59.1394 25.9602 57.9794 27.1013 56.4453 27.9347C54.9112 28.7585 53.022 29.1705 50.7777 29.1705H43.5476V24.8381H50.0675C51.3743 24.8381 52.4444 24.6108 53.2777 24.1562C54.111 23.7017 54.7266 23.0767 55.1243 22.2812C55.5315 21.4858 55.7351 20.572 55.7351 19.5398C55.7351 18.5076 55.5315 17.5985 55.1243 16.8125C54.7266 16.0265 54.1063 15.4157 53.2635 14.9801C52.4302 14.535 51.3554 14.3125 50.0391 14.3125H45.2095V39H39.9396Z" fill="black"/>
<path d="M64.5852 25.9091H66.4773L70.9261 36.7756H71.0795L75.5284 25.9091H77.4205V39H75.9375V29.054H75.8097L71.7188 39H70.2869L66.196 29.054H66.0682V39H64.5852V25.9091ZM84.5108 39.2045C83.5648 39.2045 82.7488 38.9957 82.0627 38.5781C81.3809 38.1562 80.8546 37.5682 80.4838 36.8139C80.1174 36.0554 79.9341 35.1733 79.9341 34.1676C79.9341 33.1619 80.1174 32.2756 80.4838 31.5085C80.8546 30.7372 81.3702 30.1364 82.0307 29.706C82.6955 29.2713 83.4711 29.054 84.3574 29.054C84.8688 29.054 85.3738 29.1392 85.8723 29.3097C86.3709 29.4801 86.8248 29.7571 87.2338 30.1406C87.6429 30.5199 87.9689 31.0227 88.2118 31.6491C88.4547 32.2756 88.5762 33.0469 88.5762 33.9631V34.6023H81.008V33.2983H87.0421C87.0421 32.7443 86.9313 32.25 86.7097 31.8153C86.4924 31.3807 86.1813 31.0376 85.7765 30.7862C85.3759 30.5348 84.9029 30.4091 84.3574 30.4091C83.7566 30.4091 83.2367 30.5582 82.7978 30.8565C82.3631 31.1506 82.0286 31.5341 81.7942 32.0071C81.5598 32.4801 81.4426 32.9872 81.4426 33.5284V34.3977C81.4426 35.1392 81.5705 35.7678 81.8262 36.2834C82.0861 36.7947 82.4462 37.1847 82.9064 37.4531C83.3667 37.7173 83.9015 37.8494 84.5108 37.8494C84.9071 37.8494 85.2651 37.794 85.5847 37.6832C85.9086 37.5682 86.1877 37.3977 86.4221 37.1719C86.6564 36.9418 86.8375 36.6562 86.9654 36.3153L88.4228 36.7244C88.2694 37.2188 88.0115 37.6534 87.6493 38.0284C87.2871 38.3991 86.8397 38.6889 86.307 38.8977C85.7743 39.1023 85.1756 39.2045 84.5108 39.2045ZM97.8255 31.3807L96.4703 31.7642C96.3851 31.5384 96.2594 31.3189 96.0932 31.1058C95.9313 30.8885 95.7097 30.7095 95.4284 30.5689C95.1472 30.4283 94.7871 30.358 94.3482 30.358C93.7473 30.358 93.2466 30.4964 92.8461 30.7734C92.4498 31.0462 92.2516 31.3935 92.2516 31.8153C92.2516 32.1903 92.388 32.4865 92.6607 32.7038C92.9334 32.9212 93.3596 33.1023 93.9391 33.2472L95.3965 33.6051C96.2743 33.8182 96.9284 34.1442 97.3588 34.5831C97.7892 35.0178 98.0044 35.5781 98.0044 36.2642C98.0044 36.8267 97.8425 37.3295 97.5186 37.7727C97.199 38.2159 96.7516 38.5653 96.1763 38.821C95.601 39.0767 94.932 39.2045 94.1692 39.2045C93.1678 39.2045 92.339 38.9872 91.6827 38.5526C91.0265 38.1179 90.611 37.483 90.4363 36.6477L91.8681 36.2898C92.0044 36.8182 92.2623 37.2145 92.6415 37.4787C93.025 37.7429 93.5257 37.875 94.1436 37.875C94.8468 37.875 95.405 37.7259 95.8184 37.4276C96.236 37.125 96.4448 36.7628 96.4448 36.3409C96.4448 36 96.3255 35.7145 96.0868 35.4844C95.8482 35.25 95.4817 35.0753 94.9874 34.9602L93.351 34.5767C92.4519 34.3636 91.7914 34.0334 91.3695 33.5859C90.9519 33.1342 90.7431 32.5696 90.7431 31.892C90.7431 31.3381 90.8986 30.848 91.2097 30.4219C91.525 29.9957 91.9533 29.6612 92.4945 29.4183C93.04 29.1754 93.6578 29.054 94.3482 29.054C95.3198 29.054 96.0826 29.267 96.6365 29.6932C97.1948 30.1193 97.5911 30.6818 97.8255 31.3807ZM107.23 31.3807L105.875 31.7642C105.789 31.5384 105.664 31.3189 105.498 31.1058C105.336 30.8885 105.114 30.7095 104.833 30.5689C104.551 30.4283 104.191 30.358 103.752 30.358C103.152 30.358 102.651 30.4964 102.25 30.7734C101.854 31.0462 101.656 31.3935 101.656 31.8153C101.656 32.1903 101.792 32.4865 102.065 32.7038C102.338 32.9212 102.764 33.1023 103.343 33.2472L104.801 33.6051C105.679 33.8182 106.333 34.1442 106.763 34.5831C107.194 35.0178 107.409 35.5781 107.409 36.2642C107.409 36.8267 107.247 37.3295 106.923 37.7727C106.603 38.2159 106.156 38.5653 105.581 38.821C105.005 39.0767 104.336 39.2045 103.574 39.2045C102.572 39.2045 101.743 38.9872 101.087 38.5526C100.431 38.1179 100.015 37.483 99.8406 36.6477L101.272 36.2898C101.409 36.8182 101.667 37.2145 102.046 37.4787C102.429 37.7429 102.93 37.875 103.548 37.875C104.251 37.875 104.809 37.7259 105.223 37.4276C105.64 37.125 105.849 36.7628 105.849 36.3409C105.849 36 105.73 35.7145 105.491 35.4844C105.252 35.25 104.886 35.0753 104.392 34.9602L102.755 34.5767C101.856 34.3636 101.196 34.0334 100.774 33.5859C100.356 33.1342 100.147 32.5696 100.147 31.892C100.147 31.3381 100.303 30.848 100.614 30.4219C100.929 29.9957 101.358 29.6612 101.899 29.4183C102.444 29.1754 103.062 29.054 103.752 29.054C104.724 29.054 105.487 29.267 106.041 29.6932C106.599 30.1193 106.995 30.6818 107.23 31.3807ZM113.796 39.2045C112.85 39.2045 112.034 38.9957 111.348 38.5781C110.666 38.1562 110.14 37.5682 109.769 36.8139C109.403 36.0554 109.219 35.1733 109.219 34.1676C109.219 33.1619 109.403 32.2756 109.769 31.5085C110.14 30.7372 110.655 30.1364 111.316 29.706C111.981 29.2713 112.756 29.054 113.643 29.054C114.154 29.054 114.659 29.1392 115.157 29.3097C115.656 29.4801 116.11 29.7571 116.519 30.1406C116.928 30.5199 117.254 31.0227 117.497 31.6491C117.74 32.2756 117.861 33.0469 117.861 33.9631V34.6023H110.293V33.2983H116.327C116.327 32.7443 116.216 32.25 115.995 31.8153C115.778 31.3807 115.466 31.0376 115.062 30.7862C114.661 30.5348 114.188 30.4091 113.643 30.4091C113.042 30.4091 112.522 30.5582 112.083 30.8565C111.648 31.1506 111.314 31.5341 111.079 32.0071C110.845 32.4801 110.728 32.9872 110.728 33.5284V34.3977C110.728 35.1392 110.856 35.7678 111.111 36.2834C111.371 36.7947 111.731 37.1847 112.192 37.4531C112.652 37.7173 113.187 37.8494 113.796 37.8494C114.192 37.8494 114.55 37.794 114.87 37.6832C115.194 37.5682 115.473 37.3977 115.707 37.1719C115.942 36.9418 116.123 36.6562 116.251 36.3153L117.708 36.7244C117.555 37.2188 117.297 37.6534 116.934 38.0284C116.572 38.3991 116.125 38.6889 115.592 38.8977C115.059 39.1023 114.461 39.2045 113.796 39.2045ZM121.665 33.0938V39H120.156V29.1818H121.613V30.7159H121.741C121.971 30.2173 122.321 29.8168 122.79 29.5142C123.258 29.2074 123.863 29.054 124.605 29.054C125.27 29.054 125.851 29.1903 126.35 29.4631C126.849 29.7315 127.236 30.1406 127.513 30.6903C127.79 31.2358 127.929 31.9261 127.929 32.7614V39H126.42V32.8636C126.42 32.0923 126.22 31.4915 125.819 31.0611C125.419 30.6264 124.869 30.4091 124.17 30.4091C123.689 30.4091 123.258 30.5135 122.879 30.7223C122.504 30.9311 122.208 31.2358 121.991 31.6364C121.773 32.0369 121.665 32.5227 121.665 33.0938ZM134.648 42.8864C133.92 42.8864 133.293 42.7926 132.769 42.6051C132.245 42.4219 131.808 42.179 131.459 41.8764C131.114 41.5781 130.839 41.2585 130.634 40.9176L131.836 40.0739C131.972 40.2528 132.145 40.4574 132.354 40.6875C132.563 40.9219 132.848 41.1243 133.21 41.2947C133.577 41.4695 134.056 41.5568 134.648 41.5568C135.441 41.5568 136.095 41.3651 136.611 40.9815C137.126 40.598 137.384 39.9972 137.384 39.179V37.1847H137.256C137.146 37.3636 136.988 37.5852 136.783 37.8494C136.583 38.1094 136.293 38.3416 135.914 38.5462C135.539 38.7464 135.032 38.8466 134.393 38.8466C133.6 38.8466 132.888 38.6591 132.258 38.2841C131.631 37.9091 131.135 37.3636 130.768 36.6477C130.406 35.9318 130.225 35.0625 130.225 34.0398C130.225 33.0341 130.402 32.1584 130.756 31.4126C131.109 30.6626 131.602 30.0831 132.232 29.674C132.863 29.2607 133.592 29.054 134.418 29.054C135.058 29.054 135.565 29.1605 135.94 29.3736C136.319 29.5824 136.609 29.821 136.809 30.0895C137.013 30.3537 137.171 30.571 137.282 30.7415H137.435V29.1818H138.893V39.2812C138.893 40.125 138.701 40.8111 138.317 41.3395C137.938 41.8722 137.427 42.2621 136.783 42.5092C136.144 42.7607 135.433 42.8864 134.648 42.8864ZM134.597 37.4915C135.202 37.4915 135.714 37.353 136.131 37.076C136.549 36.799 136.866 36.4006 137.084 35.8807C137.301 35.3608 137.41 34.7386 137.41 34.0142C137.41 33.3068 137.303 32.6825 137.09 32.1413C136.877 31.6001 136.562 31.1761 136.144 30.8693C135.727 30.5625 135.211 30.4091 134.597 30.4091C133.958 30.4091 133.425 30.571 132.999 30.8949C132.577 31.2187 132.26 31.6534 132.047 32.1989C131.838 32.7443 131.734 33.3494 131.734 34.0142C131.734 34.696 131.84 35.299 132.053 35.8232C132.271 36.343 132.59 36.7521 133.012 37.0504C133.438 37.3445 133.967 37.4915 134.597 37.4915ZM145.771 39.2045C144.825 39.2045 144.009 38.9957 143.322 38.5781C142.641 38.1562 142.114 37.5682 141.744 36.8139C141.377 36.0554 141.194 35.1733 141.194 34.1676C141.194 33.1619 141.377 32.2756 141.744 31.5085C142.114 30.7372 142.63 30.1364 143.29 29.706C143.955 29.2713 144.731 29.054 145.617 29.054C146.129 29.054 146.634 29.1392 147.132 29.3097C147.631 29.4801 148.085 29.7571 148.494 30.1406C148.903 30.5199 149.229 31.0227 149.472 31.6491C149.714 32.2756 149.836 33.0469 149.836 33.9631V34.6023H142.268V33.2983H148.302C148.302 32.7443 148.191 32.25 147.969 31.8153C147.752 31.3807 147.441 31.0376 147.036 30.7862C146.636 30.5348 146.163 30.4091 145.617 30.4091C145.016 30.4091 144.496 30.5582 144.058 30.8565C143.623 31.1506 143.288 31.5341 143.054 32.0071C142.82 32.4801 142.702 32.9872 142.702 33.5284V34.3977C142.702 35.1392 142.83 35.7678 143.086 36.2834C143.346 36.7947 143.706 37.1847 144.166 37.4531C144.626 37.7173 145.161 37.8494 145.771 37.8494C146.167 37.8494 146.525 37.794 146.844 37.6832C147.168 37.5682 147.447 37.3977 147.682 37.1719C147.916 36.9418 148.097 36.6562 148.225 36.3153L149.683 36.7244C149.529 37.2188 149.271 37.6534 148.909 38.0284C148.547 38.3991 148.099 38.6889 147.567 38.8977C147.034 39.1023 146.435 39.2045 145.771 39.2045ZM152.131 39V29.1818H153.588V30.6648H153.69C153.869 30.179 154.193 29.7848 154.662 29.4822C155.131 29.1797 155.659 29.0284 156.247 29.0284C156.358 29.0284 156.496 29.0305 156.663 29.0348C156.829 29.0391 156.955 29.0455 157.04 29.054V30.5881C156.989 30.5753 156.871 30.5561 156.688 30.5305C156.509 30.5007 156.32 30.4858 156.119 30.4858C155.642 30.4858 155.216 30.5859 154.841 30.7862C154.47 30.9822 154.176 31.255 153.959 31.6044C153.746 31.9496 153.639 32.3437 153.639 32.7869V39H152.131Z" fill="#C7C7C7"/>
</svg>
